inDegrees=yes
name=ik_S55_A10_T03
DataType=double
version=3
OpenSimVersion=4.3-2021-08-27-4bc7ad9
endheader
time	pelvis_tilt	pelvis_list	pelvis_rotation	pelvis_tx	pelvis_ty	pelvis_tz	hip_flexion_r	hip_adduction_r	hip_rotation_r	knee_angle_r	knee_angle_r_beta	ankle_angle_r	subtalar_angle_r	mtp_angle_r	hip_flexion_l	hip_adduction_l	hip_rotation_l	knee_angle_l	knee_angle_l_beta	ankle_angle_l	subtalar_angle_l	mtp_angle_l	lumbar_extension	lumbar_bending	lumbar_rotation	arm_flex_r	arm_add_r	arm_rot_r	elbow_flex_r	pro_sup_r	wrist_flex_r	wrist_dev_r	arm_flex_l	arm_add_l	arm_rot_l	elbow_flex_l	pro_sup_l	wrist_flex_l	wrist_dev_l
14.75999999999977	1.330392867383439	1.336775973959808	35.35770819478557	0	0.9399999999999999	0	44.99191166298082	-10.00000024131277	-10.00000581615014	54.98561486348303	0.9596800206013112	0	0	0	44.99191166298082	-10.00000024131277	-10.00000581615014	54.98561486348303	0.9596800206013112	0	0	0	1.949601085086622	0.4303953717889201	0.08339802083521017	30.71466090772482	-2.769905348355337	11.08082070586252	33.73240341787189	97.52098929955255	0	0	25.72285026080674	-10.2472953005784	0.3173515828147751	34.79921805342004	106.6015668408288	0	0
14.77999999999977	1.258224315607429	1.257937104087003	35.26984343259157	0	0.9399999999999999	0	44.99194451090905	-10.00000023873118	-10.00000577318855	54.98566538626478	0.9596809023902001	0	0	0	44.99194451090905	-10.00000023873118	-10.00000577318855	54.98566538626478	0.9596809023902001	0	0	0	1.854408020056528	0.3813883640499673	0.2073044048767895	30.67090964042793	-2.190534037239465	11.2140896064785	27.31934010765975	98.62404587127777	0	0	24.1779356548677	-9.585992443664761	2.541796887575497	32.90240582028115	105.9259782549258	0	0
14.79999999999977	1.173475327858577	1.181571766871439	35.06968859395415	0	0.9399999999999999	0	44.99202348747577	-10.00000023287615	-10.00000567332282	54.98579017470171	0.959683080359293	0	0	0	44.99202348747577	-10.00000023287615	-10.00000567332282	54.98579017470171	0.959683080359293	0	0	0	1.742284187922182	0.3668677404054146	0.4651765251090075	28.52405282414256	-2.518207080192042	11.69050850802963	26.63764962863459	98.39548915533769	0	0	22.61607143294989	-8.658875897406455	5.190384169110373	32.88575840111428	104.3423655520894	0	0
14.81999999999977	1.13289522470631	1.154235690541909	34.9444075455394	0	0.9399999999999999	0	44.99206285387017	-10.00000022990247	-10.00000562296542	54.98585135862553	0.9596841482202129	0	0	0	44.99206285387017	-10.00000022990247	-10.00000562296542	54.98585135862553	0.9596841482202129	0	0	0	1.693204616739607	0.3670387324420789	0.6767786337281756	28.52018828895104	-2.316506484721658	11.65353684982463	23.42950748683916	98.99899183086296	0	0	20.55178307107056	-7.242687898395923	7.588001175740795	31.0828347936352	102.5950094236894	0	0
14.83999999999977	1.048228373081528	1.088842522069587	34.84595142667285	0	0.9399999999999999	0	44.99209862959013	-10.00000022726745	-10.00000557784594	54.98590743303942	0.9596851269033614	0	0	0	44.99209862959013	-10.00000022726745	-10.00000557784594	54.98590743303942	0.9596851269033614	0	0	0	1.585260772315237	0.3631657123121878	0.8001866831986623	28.62245566300626	-2.093629159058026	11.6006976537994	20.25262055998032	99.84544008838746	0	0	18.28804980544088	-5.817890801714961	9.206248143954483	29.74008841714749	100.7047947290089	0	0
14.85999999999977	0.9829417349797902	0.9942057687609042	34.79082168145776	0	0.9399999999999999	0	44.99210075484497	-10.00000022696674	-10.00000557370775	54.98590907358674	0.9596851555363136	0	0	0	44.99210075484497	-10.00000022696674	-10.00000557370775	54.98590907358674	0.9596851555363136	0	0	0	1.47609341908035	0.3249249380045289	0.7318885701143262	28.78096638959784	-1.825465160812156	11.61872671673068	16.98280645731636	100.2960267267661	0	0	16.4812943952791	-5.111255592278766	9.464514093248278	28.15450360146178	99.26436459668764	0	0
14.87999999999977	0.9905921455345359	0.8799895852531351	35.48243550466816	0	0.9399999999999999	0	44.99227376361586	-10.00000021475346	-10.00000536075008	54.98618530852146	0.9596899767454334	0	0	0	44.99227376361586	-10.00000021475346	-10.00000536075008	54.98618530852146	0.9596899767454334	0	0	0	1.364352353193728	0.3699227330748007	-0.1166851844290798	20.05067837997105	-2.58855628101639	17.2296292072448	22.82447158305589	94.80293354255386	0	0	15.63509302600854	-4.593716061796379	7.609882497425942	22.33677991495621	100.4495301987109	0	0
14.89999999999977	0.900292271689329	0.8367468408334088	35.55932726002999	0	0.9399999999999999	0	44.9922779443739	-10.00000021432691	-10.00000535426286	54.98619037427864	0.9596900651595753	0	0	0	44.9922779443739	-10.00000021432691	-10.00000535426286	54.98619037427864	0.9596900651595753	0	0	0	1.26774921215594	0.3778202833153163	-0.3374600014447979	18.70550389775325	-2.533247441590693	16.43663272742684	21.46933730662634	94.76891913959739	0	0	15.55272137050323	-4.933601246955243	5.621856695288484	22.34685159101013	102.1270874356414	0	0
14.91999999999977	0.8466436122479857	0.8573555182416054	35.61961711091611	0	0.9399999999999999	0	44.99227560321678	-10.00000021421758	-10.00000535441565	54.98618394602931	0.9596899529654596	0	0	0	44.99227560321678	-10.00000021421758	-10.00000535441565	54.98618394602931	0.9596899529654596	0	0	0	1.23969985115615	0.3760580352049347	-0.3710988802715205	17.34158162986415	-2.601012144238222	14.60830003647745	20.06684893702433	95.92029274248787	0	0	14.91441485056674	-4.529698572258713	5.375704685437141	16.65445714410096	106.4422955629987	0	0
14.93999999999977	0.8102864849118332	0.880000055768387	35.6075025354648	0	0.9399999999999999	0	44.99229084669054	-10.00000021300417	-10.00000533426819	54.98620660316183	0.9596903484070211	0	0	0	44.99229084669054	-10.00000021300417	-10.00000533426819	54.98620660316183	0.9596903484070211	0	0	0	1.223950699557931	0.4059146653315962	-0.2282615988229053	16.15058357830884	-2.780325757242641	12.80247368692185	18.68970653049097	97.14506529209197	0	0	13.77075913514025	-3.18598926796227	6.894904035801223	15.14027760662381	106.68096094003	0	0
14.95999999999977	0.6902461840755417	0.8090976208201506	35.54940923617666	0	0.9399999999999999	0	44.99230929620074	-10.00000021158882	-10.0000053104135	54.98623455754351	0.9596908363030217	0	0	0	44.99230929620074	-10.00000021158882	-10.0000053104135	54.98623455754351	0.9596908363030217	0	0	0	1.085799428822771	0.4111874919964775	-0.1129401210526707	15.57168759959597	-2.901775070957714	11.42566330303756	17.06394419992956	98.16206885309332	0	0	12.61845367704972	-1.524880207871654	8.334389336808666	13.98274955600938	105.3591097372591	0	0
14.97999999999977	0.6096808186809846	0.7447955834953383	35.38409067185027	0	0.9399999999999999	0	44.99231374692516	-10.00000021113703	-10.00000530352007	54.98623993237977	0.9596909301116112	0	0	0	44.99231374692516	-10.00000021113703	-10.00000530352007	54.98623993237977	0.9596909301116112	0	0	0	0.9847626048092984	0.4026870178095736	-0.01368432020335527	15.18446357440284	-2.843048208696951	10.50855977322232	15.2378674565533	99.36223612684832	0	0	12.17628203986925	-0.7816662450920719	8.504282034971327	13.40816420426107	104.7608428018011	0	0
14.99999999999977	0.5719725899251774	0.7113678995362018	35.48539565046359	0	0.9399999999999999	0	44.99231917318929	-10.00000021058674	-10.00000529511889	54.98624648288997	0.9596910444395818	0	0	0	44.99231917318929	-10.00000021058674	-10.00000529511889	54.98624648288997	0.9596910444395818	0	0	0	0.935312691058671	0.3957308594893166	-0.1984063612116036	14.67837953918032	-2.620224472627818	10.75740158425218	15.7276443668951	99.24622288651611	0	0	11.84076614643863	-0.2469715782111195	7.142283385305178	11.83430453424483	105.3638951774757	0	0
15.01999999999977	0.4988357012812671	0.6382297998159361	35.1269478050684	0	0.9399999999999999	0	44.99228724971442	-10.00000021250645	-10.00000533112023	54.98619288212634	0.9596901089297749	0	0	0	44.99228724971442	-10.00000021250645	-10.00000533112023	54.98619288212634	0.9596901089297749	0	0	0	0.8260228977451013	0.4104139381195195	-0.2014410211769403	14.160665448182	-2.089423407162327	12.21059561603238	12.44483595858278	99.41297651242911	0	0	11.60865658324424	-0.0591044836330802	5.473404387538139	10.2437497777271	106.0167907860579	0	0
15.03999999999977	0.511229204817413	0.6776123823156525	35.21283380708507	0	0.9399999999999999	0	44.99229309583115	-10.00000021191162	-10.00000532204948	54.98619993479632	0.9596902320220871	0	0	0	44.99229309583115	-10.00000021191162	-10.00000532204948	54.98619993479632	0.9596902320220871	0	0	0	0.8575281413110035	0.4362053268945735	-0.5226266502284119	13.41100399619742	-1.811034830572123	13.46998453377054	11.67559796342851	98.27264870844145	0	0	11.50436592638279	-0.1286064267531554	3.396756564497827	9.188523338837234	108.2296585208276	0	0
15.05999999999977	0.4267507944735112	0.6361702699015926	35.29953559650637	0	0.9399999999999999	0	44.99229698689647	-10.00000021151874	-10.00000531604121	54.98620465697778	0.9596903144397014	0	0	0	44.99229698689647	-10.00000021151874	-10.00000531604121	54.98620465697778	0.9596903144397014	0	0	0	0.7688826805075289	0.4445253692711433	-0.8248319537173467	13.04067672194968	-1.666497162064197	13.54219291879535	11.03849563059007	97.81480146988767	0	0	11.88632971937581	-0.6206853672032974	1.724238958019611	8.588199610045756	110.231499775669	0	0
15.07999999999977	0.3828229328963654	0.6038719544604394	35.13619392849594	0	0.9399999999999999	0	44.99230065375988	-10.00000021114699	-10.00000531036282	54.986209085901	0.9596903917389941	0	0	0	44.99230065375988	-10.00000021114699	-10.00000531036282	54.986209085901	0.9596903917389941	0	0	0	0.7140621707457732	0.444595672873461	-0.7545123058642063	12.80176085765515	-1.663881636574337	12.54875076558582	10.44476807767366	98.50965549127081	0	0	11.82751943140834	-0.8720282982246902	1.756550339298983	8.382534635370742	111.348273698217	0	0
15.09999999999977	0.3884840644349454	0.5740673516794778	34.96002403135052	0	0.9399999999999999	0	44.99230442761073	-10.00000021076509	-10.00000530452442	54.98621364691779	0.9596904713437542	0	0	0	44.99230442761073	-10.00000021076509	-10.00000530452442	54.98621364691779	0.9596904713437542	0	0	0	0.7011288560975881	0.4180068362408544	-0.6765414122901003	12.6394585023163	-1.740813678291995	11.57483513772851	9.938509695270136	99.69794098850022	0	0	11.84367389724224	-0.9330853614813067	1.66298990084838	8.149915252634298	112.7144294914696	0	0
15.11999999999977	0.3750379562898795	0.5247247568426984	34.80950921472878	0	0.9399999999999999	0	44.99230725670751	-10.00000021047895	-10.00000530014851	54.986217065255	0.9596905310049936	0	0	0	44.99230725670751	-10.00000021047895	-10.00000530014851	54.986217065255	0.9596905310049936	0	0	0	0.6614872018258077	0.3863062349834026	-0.6012157216921955	12.56412515785938	-1.805167185309557	11.02136289182906	9.634564012642265	100.6595636729877	0	0	11.65124224047331	-0.8278341531012218	2.66694598154954	8.371573754686219	112.714988219493	0	0
15.13999999999977	0.3210228313617051	0.4472929735746016	34.58002958075773	0	0.9399999999999999	0	44.99231025006247	-10.00000021017656	-10.00000529552162	54.98622068352044	0.9596905941556385	0	0	0	44.99231025006247	-10.00000021017656	-10.00000529552162	54.98622068352044	0.9596905941556385	0	0	0	0.5731171441953976	0.3531299790101265	-0.5857390093855851	12.64078701368368	-1.761723827825892	11.03074826572604	9.363424717077443	100.8035823562403	0	0	11.72996983723827	-0.8053539887208941	3.761822176841851	8.549396420225346	111.9389555625416	0	0
